<svg height="451" width="451" fill="#FFFFFF" xmlns="http://www.w3.org/2000/svg" xmlns:xlink="http://www.w3.org/1999/xlink" xml:space="preserve" version="1.1" shape-rendering="geometricPrecision" text-rendering="geometricPrecision" image-rendering="optimizeQuality" fill-rule="evenodd" clip-rule="evenodd" viewBox="0 0 5000000 5000000" x="0px" y="0px"><g><path fill="black" fill-rule="nonzero" d="M1665171 4088278l-709 0c-17127,355 -32718,7560 -44175,19017 -11811,11811 -19134,28111 -19134,45946l0 280284 1797694 0 0 -280284c0,-17835 -7323,-34135 -19134,-45946 -11457,-11457 -27048,-18662 -44175,-19017l-709 0 -1669658 0zm32835 -66616l1603988 0c2126,-3307 3898,-6851 5433,-10512 2953,-7323 4606,-15591 4606,-24213l0 -7087c0,-17954 -7323,-34135 -19134,-45947 -11811,-11811 -28111,-19134 -45946,-19134l-38269 0 -1063 0 -1431778 0 -1181 0 -21615 0c-17953,0 -34135,7323 -45946,19016l-118 118c-11693,11694 -19016,27993 -19016,45947l0 7087c0,8622 1653,16890 4724,24213 1417,3661 3189,7205 5315,10512zm1442762 -173509c-34725,-61420 -71459,-118587 -107247,-174337 -121067,-188627 -231622,-360956 -231622,-632736 0,-134768 17835,-264930 63427,-387768 45592,-123429 118941,-238827 229260,-343239 5551,-5315 12874,-8741 21024,-9213 7914,-591 15119,-4252 20434,-9804 4960,-5433 8150,-12756 8150,-20788l0 -4724c0,-8386 -3426,-16064 -8977,-21615 -5551,-5551 -13229,-8977 -21615,-8977 -4606,0 -8977,-945 -12993,-2598 -3897,1535 -8149,2480 -12638,2480l-1175942 0c-4489,0 -8741,-945 -12638,-2480 -4016,1653 -8387,2598 -12993,2598 -8386,0 -16064,3426 -21615,8859l-118 118c-5433,5551 -8859,13229 -8859,21615l0 4724c0,7560 2835,14646 7442,19962 4724,5433 11220,9213 18544,10276 6496,944 12756,3897 17953,8740 111145,104531 184612,220046 230322,343712 45474,122956 63191,253236 63191,388122 0,268591 -109255,441628 -228432,630138 -35671,56577 -72404,114571 -107012,176935l1282954 0zm-60474 -1679935l0 -550765 -118823 0 0 171619c0,18426 -15000,33308 -33308,33308l-96145 0c-18307,0 -33190,-14882 -33190,-33308l0 -171619 -211069 0 0 171619c0,18426 -14883,33308 -33308,33308l-108902 0c-18425,0 -33308,-14882 -33308,-33308l0 -171619 -210951 0 0 171619c0,18426 -15001,33308 -33308,33308l-96145 0c-18308,0 -33308,-14882 -33308,-33308l0 -171619 -118823 0 0 550765 1160588 0zm-1452447 1859114c-4134,-12875 -6379,-26458 -6379,-40395l0 -7087c0,-36143 14765,-68979 38624,-92956l236 -236c23859,-23741 56695,-38505 92719,-38505l29293 0c40276,-76184 83979,-145280 126382,-212369 113625,-179888 218038,-345011 218038,-594704 0,-127681 -16654,-250402 -59175,-365326 -41222,-111736 -107366,-216503 -206700,-311821 -18898,-5197 -35552,-15946 -47954,-30356l-118 -118c-14646,-17126 -23623,-39214 -23623,-63191l0 -4724c0,-26576 10985,-50789 28584,-68506l236 -237c9922,-9803 21851,-17599 35080,-22441l0 -590216c0,-18307 15000,-33308 33308,-33308l185439 0c18426,0 33308,15001 33308,33308l0 171620 29529 0 0 -171620c0,-18307 14882,-33308 33308,-33308l277567 0c18308,0 33309,15001 33309,33308l0 171620 42403 0 0 -171620c0,-18307 14882,-33308 33190,-33308l277567 0c18426,0 33308,15001 33308,33308l0 171620 29529 0 0 -171620c0,-18307 14882,-33308 33308,-33308l185439 0c18308,0 33308,15001 33308,33308l0 590098c13347,4960 25395,12756 35316,22678 17599,17599 28584,41930 28584,68624l0 4724c0,25513 -10040,48900 -26458,66380 -13465,14292 -31300,24686 -51379,28702 -98389,94964 -164061,199495 -205282,310758 -42521,114807 -59294,237527 -59294,364972 0,252528 105594,416824 220992,596830 42521,66144 86341,134414 127326,210243l30238 0c36261,0 69096,14882 92955,38623 23859,23859 38624,56813 38624,93074l0 7087c0,13937 -2245,27520 -6379,40395 20907,6378 39569,17835 54687,32953 23741,23741 38623,56695 38623,92956l0 284064c0,17127 -7086,32836 -18425,44175l-355 354c-11339,11221 -26930,18308 -44056,18308l-1805254 0c-17126,0 -32836,-7087 -44293,-18426l-236 -354c-11339,-11339 -18307,-27048 -18307,-44057l0 -284064c0,-36261 14882,-69215 38623,-92956 15118,-15118 33780,-26575 54687,-32953z"/></g></svg>