<svg height='451' width='451'  fill="#000000" xmlns="http://www.w3.org/2000/svg" xmlns:xlink="http://www.w3.org/1999/xlink" xml:space="preserve" version="1.1" shape-rendering="geometricPrecision" text-rendering="geometricPrecision" image-rendering="optimizeQuality" fill-rule="evenodd" clip-rule="evenodd" viewBox="0 0 5000000 5000000" x="0px" y="0px"><g><path fill="#000000" d="M3363295 4082373c47836,7441 84688,49017 84688,98861l0 288907c0,16418 -13465,29883 -30001,29883l-1835846 0c-16536,0 -30000,-13465 -30000,-29883l0 -288907c0,-49844 36851,-91420 84569,-98861l1726590 0zm-1718912 -42285c-2599,-8859 -3898,-18308 -3898,-27993l0 -7205c0,-49844 36851,-91420 84569,-98861l1549892 0c47836,7441 84687,49017 84687,98861l0 7205c0,9685 -1417,19134 -4016,27993l-1711234 0zm168076 -176344c151304,-276151 341821,-464542 341821,-813451 0,-267056 -69923,-514859 -287843,-719668 -31182,-4725 -55396,-31773 -55396,-64254l0 -4725c0,-31655 22796,-58112 52797,-63900l1272442 0c29883,5788 52679,32245 52679,63900l0 4725c0,34253 -26930,62600 -60711,64844 -216857,204692 -287371,452377 -287371,719078 0,351861 191226,537300 345483,813451l-1373901 0zm144453 -1708282c-7441,-27403 -11339,-56813 -11339,-88468 0,-218392 283710,-599074 458046,-738684 -8386,-15946 -13111,-34135 -13111,-53388 0,-63309 51380,-114570 114689,-114570 63309,0 114571,51261 114571,114570 0,19607 -4843,38033 -13584,54096 80790,66144 184731,185557 272253,315955l-340286 196424c-16182,9331 -21615,30001 -12284,46182 9331,16182 30001,21615 46183,12284l343002 -197959c80436,130280 139493,265284 139493,365090 0,31655 -4016,61065 -11575,88468l-1086058 0z"></path></g></svg>