<svg height='451' width='451'  fill="#000000" xmlns="http://www.w3.org/2000/svg" xmlns:xlink="http://www.w3.org/1999/xlink" xml:space="preserve" version="1.1" shape-rendering="geometricPrecision" text-rendering="geometricPrecision" image-rendering="optimizeQuality" fill-rule="evenodd" clip-rule="evenodd" viewBox="0 0 5000000 5000000" x="0px" y="0px"><g><path fill="#000000" d="M1938368 2155462l87995 -198786 436313 -293395 -118 -118c30946,-15828 25631,-73231 -31773,-61183l-521591 104530 -94846 -223944 442219 -216148 -51616 -99452c439975,0 896013,291387 744236,789119l85987 199377 -1096806 0zm423084 -865658c-18189,0 -32953,14765 -32953,32836 0,18190 14764,32954 32953,32954 18072,0 32836,-14764 32836,-32954 0,-18071 -14764,-32836 -32836,-32836zm-717069 2750284c-2599,-8859 -4016,-18308 -4016,-27993l0 -7205c0,-49844 36851,-91420 84687,-98861l1549892 0c47836,7441 84687,49017 84687,98861l0 7205c0,9685 -1417,19134 -4016,27993l-1711234 0zm168076 -176344c151304,-276151 341821,-464542 341821,-813451 0,-267056 -69923,-514859 -287843,-719668 -31300,-4725 -55396,-31773 -55396,-64254 0,-33663 18426,-62010 52797,-68625l1272324 0c30001,5788 52797,32245 52797,63900 0,36497 -22678,67089 -60711,69569 -216857,204692 -287371,452377 -287371,719078 0,351861 191226,537300 345483,813451l-1373901 0zm1550836 218629c47836,7441 84688,49017 84688,98861l0 288907c0,16418 -13583,29883 -30001,29883l-1835964 0c-16418,0 -29882,-13465 -29882,-29883l0 -288907c0,-49844 36851,-91420 84569,-98861l1726590 0z"></path></g></svg>