<svg height='451' width='451'  fill="#000000" xmlns="http://www.w3.org/2000/svg" xmlns:xlink="http://www.w3.org/1999/xlink" xml:space="preserve" version="1.1" shape-rendering="geometricPrecision" text-rendering="geometricPrecision" image-rendering="optimizeQuality" fill-rule="evenodd" clip-rule="evenodd" viewBox="0 0 5000000 5000000" x="0px" y="0px"><g><path fill="#000000" d="M3363413 4082373c47718,7441 84570,49017 84570,98861l0 288907c0,16418 -13465,29883 -30001,29883l-1835846 0c-16536,0 -30000,-13465 -30000,-29883l0 -288907c0,-49844 36851,-91420 84569,-98861l1726708 0zm-1718912 -42285c-2599,-8859 -4016,-18308 -4016,-27993l0 -7205c0,-49844 36851,-91420 84569,-98861l1550010 0c47718,7441 84569,49017 84569,98861l0 7205c0,9685 -1417,19134 -4016,27993l-1711116 0zm214495 -176344c138547,-524899 331073,-850185 331073,-1486228 0,-375603 -42049,-729000 -164651,-1037868l-162525 0c-35788,0 -65080,-29174 -65080,-64962l0 -4725c0,-29410 19843,-54332 46655,-62364l1311183 0c26930,8032 46655,32954 46655,62364l0 4725c0,35788 -29293,64962 -65081,64962l-166659 0c-122366,308868 -165005,662265 -165005,1037868 0,641240 193352,960739 334853,1486228l-1281418 0zm-126382 -2698432c-25985,-8622 -44766,-33072 -44766,-61773l0 -4725c0,-35670 29293,-64963 65081,-64963l67443 0 66380 -78309 2008 0 0 -208589c-43584,-16182 -74648,-58112 -74648,-107366 0,-63309 51262,-114689 114571,-114689 63309,0 114688,51380 114688,114689 0,26930 -9331,51616 -24922,71223l221582 227251 175518 -243315c-20198,-20670 -32718,-48899 -32718,-80199 0,-63309 51261,-114571 114570,-114571 63310,0 114689,51262 114689,114571 0,29647 -11339,56695 -29765,77128l178116 246977 222055 -227842c-15473,-19607 -24804,-44293 -24804,-71223 0,-63309 51261,-114689 114570,-114689 63309,0 114689,51380 114689,114689 0,49254 -31064,91184 -74648,107366l0 208589 1181 0 66380 78309 67443 0c35670,0 64963,29293 64963,64963l0 4725c0,28701 -18780,53151 -44647,61773l-1535009 0z"></path></g></svg>