<svg height='451' width='451'  fill="#000000" xmlns="http://www.w3.org/2000/svg" xmlns:xlink="http://www.w3.org/1999/xlink" xml:space="preserve" version="1.1" shape-rendering="geometricPrecision" text-rendering="geometricPrecision" image-rendering="optimizeQuality" fill-rule="evenodd" clip-rule="evenodd" viewBox="0 0 5000000 5000000" x="0px" y="0px"><g><path fill="#000000" d="M3363413 4082373c47718,7441 84570,49017 84570,98861l0 288907c0,16418 -13465,29883 -30001,29883l-1835846 0c-16536,0 -30000,-13465 -30000,-29883l0 -288907c0,-49844 36851,-91420 84687,-98861l1726590 0zm-1718912 -42285c-2599,-8859 -4016,-18308 -4016,-27993l0 -7205c0,-49844 36851,-91420 84569,-98861l1550010 0c47718,7441 84569,49017 84569,98861l0 7205c0,9685 -1417,19134 -4016,27993l-1711116 0zm140437 -176344c154611,-524899 369342,-850185 369342,-1486228 0,-375603 -46891,-729000 -183667,-1037868l-120948 0c-35789,0 -65081,-29174 -65081,-64962l0 -4725c0,-29410 19843,-54332 46655,-62364l1337640 0c26930,8032 46655,32954 46655,62364l0 4725c0,35788 -29292,64962 -64962,64962l-125674 0c-136539,308868 -184021,662265 -184021,1037868 0,641240 215676,960739 373594,1486228l-1429533 0zm-52324 -2698432c-25985,-8622 -44766,-33072 -44766,-61773l0 -4725c0,-35670 29293,-64963 65081,-64963l67443 0 66380 -78309 2008 0 0 -150714c0,-99451 146816,1300 146816,1300l230204 135240 114807 -98271c-2953,-10748 -4607,-22087 -4607,-33898 0,-52797 32954,-97917 79491,-115870l-65081 -127445 219338 0 -65081 127445c46537,17953 79491,63073 79491,115870 0,11811 -1536,23150 -4607,33898l117051 100161 233275 -137130c0,0 146816,-100751 146816,-1300l0 154612 63191 74411 67443 0c35670,0 64963,29293 64963,64963l0 4725c0,28701 -18780,53151 -44647,61773l-1535009 0z"></path></g></svg>