<svg height='451' width='451'  fill="#000000" xmlns="http://www.w3.org/2000/svg" xmlns:xlink="http://www.w3.org/1999/xlink" xml:space="preserve" version="1.1" shape-rendering="geometricPrecision" text-rendering="geometricPrecision" image-rendering="optimizeQuality" fill-rule="evenodd" clip-rule="evenodd" viewBox="0 0 5000000 5000000" x="0px" y="0px"><g><path fill="black" fill-rule="nonzero" d="M1665171 4088278l-591 0c-17245,355 -32836,7678 -44293,19017 -11811,11811 -19134,28111 -19134,45946l0 280284 1797694 0 0 -280284c0,-17953 -7205,-34253 -18898,-45946l-236 -118c-11339,-11339 -26930,-18544 -44175,-18899l-590 0 -1669777 0zm32953 -66616l1603870 0c2126,-3307 3898,-6851 5433,-10512 2953,-7323 4606,-15591 4606,-24213l0 -7087c0,-17954 -7323,-34253 -19016,-45947l-118 -118c-11693,-11693 -27993,-19016 -45946,-19016l-32482 0c-1181,0 -2244,-118 -3307,-118 -1181,118 -2362,118 -3543,118l-1431778 0 -2008 0 -20788 0c-17835,0 -34135,7323 -45828,19134 -11811,11812 -19134,27993 -19134,45947l0 7087c0,8622 1653,16890 4606,24213 1417,3661 3307,7205 5433,10512zm1471936 -173509c-43820,-145517 -92601,-275796 -139610,-401706 -119532,-319380 -228551,-611121 -228551,-1066923 0,-186148 11812,-367098 40631,-540253 25986,-156383 65908,-306034 123430,-447062l-936290 118c60356,147879 100397,303317 125673,461590 27875,174572 38033,351743 38033,525607 0,450605 -107838,743645 -225361,1062907 -46892,127327 -95318,258906 -138666,405722l1340711 0zm-102759 -2522442l72404 0c8386,0 15946,-3425 21497,-8977 5551,-5551 9095,-13228 9095,-21614l0 -4725c0,-8386 -3426,-16064 -8859,-21615l-236 -118c-5433,-5433 -13111,-8859 -21497,-8859l-28465 0 -1181 0 -1250827 0c-7914,355 -15119,3780 -20434,8977 -5551,5551 -8977,13229 -8977,21615l0 4725c0,8386 3426,16063 8977,21614 5551,5552 13229,8977 21615,8977l89412 0 1772 -118 1113460 0 2244 118zm-1118421 66616l-708 0 -87759 0c-26694,0 -50907,-10984 -68506,-28583l-118 -118c-17599,-17599 -28584,-41931 -28584,-68506l0 -4725c0,-25631 10040,-49017 26340,-66380l-24214 0c-26694,0 -51025,-10867 -68624,-28466l-118 -236c-17599,-17599 -28466,-41812 -28466,-68506l0 -4606c0,-26812 10867,-51144 28466,-68743 17599,-17599 41930,-28465 68742,-28465l49726 0 1181 0 49372 -58230 0 -133705c0,-154966 182132,-35671 195715,-26576l204691 120240 80200 -68506c-1063,-7205 -1536,-14174 -1536,-20788 0,-32481 10040,-62719 27166,-87759 10749,-15591 24332,-29174 39923,-40040l-48545 -95200c-2717,-4843 -4252,-10394 -4252,-16300 0,-18426 14882,-33308 33308,-33308l215558 0c5079,0 10276,1181 15119,3661 16299,8268 22914,28348 14528,44766l-49254 96381c15709,10866 29174,24449 39923,40040 17126,25040 27284,55278 27284,87759 0,6614 -591,13583 -1536,20788l82326 70278 207762 -122012c13583,-9095 195715,-128390 195715,26576l0 139847 44057 52088 1299 0 49726 0c26576,0 50789,10866 68506,28465l118 118c17717,17718 28584,41931 28584,68625l0 4606c0,26812 -10867,51025 -28584,68742 -17599,17599 -41812,28466 -68624,28466l-24332 0c16300,17481 26458,40867 26458,66380l0 4725c0,26693 -10985,51025 -28584,68624 -17599,17599 -41930,28583 -68624,28583l-101814 0c-61183,143509 -102995,296939 -129807,457810 -28111,168785 -39568,346192 -39568,529387 0,444463 106893,730535 224062,1043773 49371,131933 100515,268709 146697,424856l7678 0c36024,0 68860,14764 92719,38505l354 236c23859,23977 38624,56813 38624,92956l0 7087c0,13937 -2244,27638 -6497,40395 20789,6378 39332,17835 54451,32717l236 354c23859,23859 38623,56695 38623,92838l0 284064c0,15945 -6023,30592 -15945,41694l-2480 2717c-11339,11339 -27048,18426 -44293,18426l-1805372 0c-17244,0 -32954,-7087 -44293,-18426 -11457,-11457 -18425,-27166 -18425,-44411l0 -284064c0,-36261 14764,-69215 38623,-92956 15000,-15118 33780,-26575 54687,-32953 -4252,-12875 -6497,-26458 -6497,-40395l0 -7087c0,-36261 14765,-69215 38624,-93074 23859,-23741 56812,-38623 92955,-38623l7087 0c45474,-156974 96381,-295167 145398,-428636 115398,-313356 221228,-600964 221228,-1039993 0,-171502 -9804,-345365 -36970,-515213 -25985,-162171 -67797,-321388 -132169,-471984l-8741 0zm1237953 -234810l47954 -118c8386,0 16063,-3426 21615,-8977 5551,-5551 8976,-13229 8976,-21615l0 -4606c0,-8505 -3425,-16182 -8858,-21615l-118 -118c-5433,-5552 -13111,-8859 -21615,-8859l-49726 0 -16536 0 -591 0 -1352877 0 -2008 -118 -47718 118c-8386,0 -16063,3425 -21615,8977 -5551,5551 -8976,13229 -8976,21615l0 4606c0,8504 3425,16182 8858,21733 5552,5433 13229,8859 21733,8859l48545 0 1181 0 1370004 0 1772 118zm-90121 -132524l-15709 -18544c-5197,-6142 -7796,-13819 -7796,-21379l-118 -152012c0,-34844 -92011,28465 -92247,28583l-231503 136068c-12521,7441 -27875,5551 -38387,-3308l-115043 -98507c-10158,-8622 -13820,-22087 -10394,-34135 1063,-4015 2007,-8031 2480,-12047 472,-3662 827,-7796 827,-12284 0,-18780 -5788,-36025 -15473,-50317 -10158,-14646 -24568,-26221 -41458,-32717 -17009,-6615 -25513,-25867 -18898,-42876l1299 -3070 39214 -77011 -106894 0 39214 76892c8268,16418 1772,36498 -14528,44766 -1771,826 -3425,1535 -5197,2126 -15945,6614 -29646,17835 -39332,31890 -9803,14292 -15473,31537 -15473,50317 0,4488 237,8622 709,12284l118 827c591,3661 1418,7441 2481,11220 3779,13347 -1182,27049 -11576,35080l-111853 95673c-11458,9921 -27875,10512 -39923,2480l-226779 -133351c-236,-118 -92247,-63427 -92247,-28583l0 148233c0,11929 -6260,22323 -15709,28229l-13111 15473 1193306 0z"></path></g></svg>