<svg height='451' width='451'  fill="#000000" xmlns="http://www.w3.org/2000/svg" xmlns:xlink="http://www.w3.org/1999/xlink" xml:space="preserve" version="1.1" shape-rendering="geometricPrecision" text-rendering="geometricPrecision" image-rendering="optimizeQuality" fill-rule="evenodd" clip-rule="evenodd" viewBox="0 0 5000000 5000000" x="0px" y="0px"><g><path fill="#000000" fill-rule="nonzero" d="M1665171 4088278l-709 0c-17127,355 -32836,7678 -44175,19017 -11811,11811 -19134,28111 -19134,45946l0 280284 1797694 0 0 -280284c0,-17835 -7323,-34135 -19134,-45946 -11457,-11457 -27048,-18662 -44175,-19017l-709 0 -1669658 0zm698525 -2773433c-25276,0 -45710,20433 -45710,45710 0,25276 20434,45828 45710,45828 25277,0 45711,-20552 45711,-45828 0,-25277 -20434,-45710 -45711,-45710zm-382689 853373l1012119 0 -81971 -189927c-3662,-8386 -3544,-17481 -473,-25277 18426,-61183 26930,-119177 26930,-173627 0,-129926 -49490,-239299 -129571,-325522 -81617,-87759 -195006,-152131 -320443,-190400 -71223,-21733 -146461,-34962 -222172,-39332l24804 47600c8386,16300 1889,36379 -14410,44765l-407257 199022 70514 166305 488519 -97917c28229,-5315 49608,1063 64490,13111 9449,7677 15828,17481 19371,28347l236 0c3189,9804 3898,20552 2244,31064 -2952,19725 -14882,38742 -33898,49254l-419305 282174 -79727 180360zm1084523 0l22441 0c945,0 2008,0 2953,118l22678 0c28820,0 52797,11457 70042,29883 17362,18662 27166,44293 27166,72049 0,25513 -10040,48900 -26458,66380 -13465,14292 -31300,24686 -51379,28702 -98389,94964 -164061,199495 -205282,310758 -42521,114807 -59294,237527 -59294,364972 0,252528 105476,416824 220992,596830 42521,66144 86341,134414 127326,210243l30238 0c36261,0 69096,14882 92955,38623 23859,23859 38624,56813 38624,93074 0,16772 -1772,32363 -6379,47482 20907,6378 39569,17835 54687,32953 23741,23741 38623,56695 38623,92956l0 284064c0,17009 -6968,32600 -18307,44057l-236 354c-11457,11339 -27167,18426 -44293,18426l-1805254 0c-17126,0 -32717,-7087 -44056,-18308l-355 -354c-11339,-11339 -18425,-27048 -18425,-44175l0 -284064c0,-36261 14882,-69215 38623,-92956 15118,-15118 33780,-26575 54687,-32953 -4607,-15119 -6379,-30710 -6379,-47482 0,-36025 14647,-68861 38506,-92720l236 -354c23859,-23859 56694,-38623 92837,-38623l29174 0c40395,-76184 84098,-145280 126501,-212369 113625,-179888 217920,-345011 217920,-594704 0,-127681 -16536,-250402 -59057,-365326 -41222,-111618 -107248,-216503 -206700,-311703 -20551,-5433 -37087,-16654 -49371,-31891 -14528,-18189 -22324,-41576 -22324,-66616 0,-26576 10867,-50789 28466,-68388l236 -236c17717,-17599 41930,-28584 68506,-28584l21851 0 95554 -216030c2481,-5552 6497,-10513 11930,-14174l431116 -289970c-1536,118 -3662,354 -6378,827l-514859 103350 -118 0c-15119,2953 -30710,-4961 -36970,-19725l-92719 -218629c-8032,-16418 -1182,-36379 15354,-44411l404304 -197487 -34016 -65435c-3071,-5079 -4843,-11103 -4843,-17481 0,-18425 14882,-33308 33308,-33308 100161,0 201621,15001 296939,44057 136421,41694 260087,112208 349853,208707 91184,98153 147524,222763 147524,370760 0,57521 -8622,118822 -27284,183549l88586 205282zm-24686 66616l-1108736 0 -2244 118 -43466 0c-8504,0 -16064,3426 -21615,8859l-118 118c-5433,5551 -8859,13229 -8859,21615 0,10039 2599,18898 7560,25040 4016,5079 10276,8740 18426,9922 7559,1181 14173,4724 19134,9803 110555,104295 183549,219456 229141,342649 45474,122956 63191,253236 63191,388122 0,268591 -109255,441628 -228432,630138 -35671,56577 -72404,114571 -107012,176935l1282954 0c-34725,-61420 -71459,-118587 -107247,-174337 -121067,-188627 -231740,-360956 -231740,-632736 0,-134768 17953,-264930 63427,-387768 45829,-123547 119177,-239063 229732,-343475 5906,-5552 13229,-8505 20670,-8977 7914,-591 15119,-4252 20316,-9804 5078,-5433 8268,-12756 8268,-20788 0,-10984 -3308,-20433 -9213,-26812 -4961,-5197 -12166,-8504 -21379,-8504l-69805 0c-1063,0 -2008,0 -2953,-118zm261268 1786828c2598,-4016 4488,-8032 5906,-12166 2834,-8386 3897,-18189 3897,-29646 0,-17954 -7323,-34135 -19016,-45947 -11811,-11811 -28111,-19134 -45946,-19134l-38269 0 -1063 0 -1431778 0 -1889 0 -20907 0c-17953,0 -34253,7323 -45946,19016l-118 118c-11693,11694 -19016,27993 -19016,45947 0,11457 1181,21260 4015,29646 1418,4134 3308,8150 5906,12166l1604224 0z"></path></g></svg>