<svg height='451' width='451'  fill="#000000" xmlns="http://www.w3.org/2000/svg" xmlns:xlink="http://www.w3.org/1999/xlink" xml:space="preserve" version="1.1" shape-rendering="geometricPrecision" text-rendering="geometricPrecision" image-rendering="optimizeQuality" fill-rule="evenodd" clip-rule="evenodd" viewBox="0 0 5000000 5000000" x="0px" y="0px"><g><path fill="#000000" fill-rule="nonzero" d="M1665171 4088278l-709 0c-17127,355 -32836,7560 -44175,19017 -11811,11811 -19134,28111 -19134,45946l0 280284 1797694 0 0 -280284c0,-17835 -7323,-34135 -19134,-45946 -11457,-11339 -27048,-18662 -44175,-19017l-709 0 -1669658 0zm242133 -1919942c945,-118 1890,-118 2835,-118l23268 0c-1889,-6969 -3543,-14174 -4960,-21379 -4607,-23032 -7087,-47363 -7087,-72640 0,-102995 58230,-237291 138547,-366744 90830,-146579 210834,-288434 305443,-369696l-2008 -7442c-2835,-11457 -4370,-23150 -4370,-34961 0,-40395 16418,-76892 42757,-103232 26458,-26457 62955,-42875 103232,-42875 40395,0 76892,16418 103349,42875 26340,26340 42758,62837 42758,103232 0,12047 -1536,23977 -4489,35552l-2244 8032c36616,32954 79491,78782 123075,130280 52797,62600 107011,134177 151895,201029 3425,4961 5197,10631 5551,16300 4488,2599 8504,6378 11457,11221 42875,69333 79727,140083 105003,206227 23387,61419 37206,119531 37206,170202 0,25040 -2480,49254 -7205,72758 -1535,7205 -3189,14292 -4961,21261l19844 0c944,0 1889,0 2834,118l24568 0c26694,0 51025,10985 68624,28584 17599,17599 28584,41930 28584,68624l0 4724c0,25513 -10040,48900 -26458,66380 -13465,14292 -31300,24686 -51379,28702 -98389,94964 -164061,199495 -205282,310758 -42521,114807 -59294,237527 -59294,364972 0,252528 105476,416824 220992,596830 42521,66144 86341,134414 127326,210243l30238 0c36261,0 69096,14882 92955,38623 23859,23859 38624,56813 38624,93074l0 7087c0,13937 -2245,27520 -6379,40395 20789,6378 39569,17835 54687,32953 23741,23741 38623,56695 38623,92956l0 284064c0,17127 -7086,32836 -18425,44175l-355 354c-11339,11221 -26930,18308 -44056,18308l-1805254 0c-17244,0 -32836,-7087 -44293,-18426l-236 -354c-11339,-11339 -18307,-27048 -18307,-44057l0 -284064c0,-36261 14764,-69215 38623,-92956 15118,-15118 33780,-26575 54687,-32953 -4134,-12875 -6497,-26458 -6497,-40395l0 -7087c0,-36143 14883,-68979 38742,-92956l236 -236c23859,-23741 56695,-38505 92719,-38505l29174 0c40395,-76184 84098,-145280 126382,-212369 113744,-179888 218039,-345011 218039,-594704 0,-127681 -16536,-250402 -59057,-365326 -41340,-111736 -107366,-216503 -206700,-311821 -18898,-5197 -35552,-15946 -47954,-30356l-118 -118c-14764,-17126 -23623,-39214 -23623,-63191l0 -4724c0,-26576 10867,-50789 28584,-68506l118 -237c17717,-17599 41930,-28465 68506,-28465l20906 0zm95436 -118l994165 0c3780,-11103 6969,-22560 9331,-34253 3780,-18426 5670,-38269 5670,-59766 0,-42285 -12166,-92483 -32836,-146579 -20552,-53860 -49253,-110909 -82561,-167486l-309105 178470c-22678,13229 -43229,14765 -57521,9686 -10276,-3780 -18190,-10512 -23151,-19607 -4724,-8741 -6378,-18662 -4370,-28938 2835,-15355 14883,-33190 38151,-46655l303553 -175281c-38860,-55750 -83507,-113744 -127445,-165714 -48545,-57522 -96027,-107248 -133233,-137839 -12047,-9922 -15945,-27166 -8268,-41458 3071,-5551 5434,-11693 6969,-18072 1536,-6023 2362,-12520 2362,-19370 0,-21969 -8858,-41813 -23268,-56222 -14292,-14292 -34253,-23269 -56222,-23269 -21851,0 -41813,8977 -56104,23269 -14410,14409 -23269,34253 -23269,56222 0,6732 827,13229 2244,19134 1536,6260 3898,12166 6851,17835 7205,13820 3898,31183 -8622,41340 -92129,73703 -216503,218393 -309695,368634 -74412,119886 -128390,242252 -128390,331900 0,21143 2008,41222 5788,59884 2244,11929 5315,23268 8976,34135zm1014009 66616l-1033734 0c-945,118 -1890,118 -2953,118l-93664 0c-8504,0 -16064,3426 -21615,8859l-118 118c-5433,5551 -8859,13229 -8859,21615l0 4724c0,7560 2835,14646 7442,19962 4724,5433 11220,9213 18544,10276 6496,944 12756,3897 17953,8740 111145,104531 184612,220046 230322,343712 45474,122956 63191,253236 63191,388122 0,268591 -109255,441628 -228432,630138 -35671,56577 -72404,114571 -107012,176935l1282954 0c-34725,-61420 -71459,-118705 -107247,-174337 -121067,-188627 -231740,-360956 -231740,-632736 0,-134768 17953,-264930 63427,-387768 45710,-123429 118941,-238827 229378,-343239 5551,-5315 12874,-8741 21024,-9213 7914,-591 15119,-4252 20316,-9804 5078,-5433 8268,-12756 8268,-20788l0 -4724c0,-8386 -3426,-16064 -8977,-21615 -5551,-5551 -13229,-8977 -21615,-8977l-94137 0c-945,0 -1772,0 -2716,-118zm285245 1786828c2126,-3307 3898,-6851 5315,-10512 3071,-7323 4606,-15591 4606,-24213l0 -7087c0,-17954 -7323,-34135 -19016,-45947 -11811,-11811 -28111,-19134 -45946,-19134l-38269 0 -1181 0 -1431660 0 -1181 0 -21615 0c-17953,0 -34253,7323 -45946,19016l-118 118c-11693,11694 -19016,27993 -19016,45947l0 7087c0,8622 1653,16890 4606,24213 1535,3661 3307,7205 5433,10512l1603988 0z"></path></g></svg>