<svg height='451' width='451'  fill="#000000" xmlns="http://www.w3.org/2000/svg" xmlns:xlink="http://www.w3.org/1999/xlink" xml:space="preserve" version="1.1" shape-rendering="geometricPrecision" text-rendering="geometricPrecision" image-rendering="optimizeQuality" fill-rule="evenodd" clip-rule="evenodd" viewBox="0 0 5000000 5000000" x="0px" y="0px"><g><path fill="#000000" fill-rule="nonzero" d="M1665171 4088278l-709 0c-17127,355 -32836,7678 -44175,19017 -11811,11811 -19134,28111 -19134,45946l0 280284 1797694 0 0 -280284c0,-17953 -7323,-34253 -19016,-45946l-118 -118c-11339,-11339 -26930,-18544 -44293,-18899l-591 0 -1669658 0zm215794 -2695951l-827 0 -6733 0c-26693,0 -51025,-10984 -68624,-28583l-118 -118c-17599,-17599 -28465,-41931 -28465,-68506l0 -4725c0,-25631 10039,-49017 26339,-66380l-37324 0c-26694,0 -50907,-10867 -68506,-28466l-118 -236c-17599,-17599 -28584,-41812 -28584,-68506l0 -4606c0,-26812 10985,-51144 28584,-68743 17599,-17599 41930,-28465 68624,-28465l49726 0 1299 0 49254 -58230 0 -169730c-18780,-10748 -34962,-25631 -47246,-43348 -16418,-23623 -26103,-52324 -26103,-83152 0,-40277 16300,-76774 42757,-103232 26458,-26457 62955,-42757 103232,-42757 40395,0 76892,16300 103232,42757 26457,26458 42875,62955 42875,103232 0,16536 -2953,32836 -8268,48072 -2126,6024 -4607,11930 -7441,17599l171974 176463 134768 -186857c-5079,-7795 -9449,-16063 -12993,-24804 -7087,-17244 -10866,-35788 -10866,-55041 0,-40277 16299,-76892 42757,-103231 26339,-26458 62837,-42876 103231,-42876 40277,0 76775,16418 103232,42876 26458,26339 42757,62954 42757,103231 0,18308 -3543,36025 -9921,52561 -3189,8268 -6969,16063 -11575,23505l137957 191108 172446 -176935c-2835,-5669 -5315,-11575 -7441,-17599 -5315,-15355 -8150,-31536 -8150,-48072 0,-40277 16300,-76774 42757,-103232 26340,-26457 62955,-42757 103232,-42757 40277,0 76774,16300 103231,42757 26458,26458 42758,62955 42758,103232 0,30828 -9567,59529 -26103,83152l-1418 2008c-12166,16890 -27757,30946 -45828,41340l0 170793 48427 57167 1181 0 49726 0c26694,0 50907,10866 68624,28465l118 237c17599,17717 28584,41930 28584,68506l0 4606c0,26812 -10985,51025 -28584,68742 -17599,17599 -41930,28466 -68742,28466l-37324 0c16418,17481 26457,40867 26457,66380l0 4725c0,26693 -10984,51025 -28583,68624 -17599,17599 -41931,28583 -68624,28583l-141265 0c-54687,143036 -92011,296348 -115988,457219 -25276,169022 -35552,346665 -35552,529978 0,445053 95909,731361 201030,1044836 44175,131815 90003,268355 131225,423793l80908 0c36024,0 68978,14764 92837,38623l236 354c23741,23859 38506,56695 38506,92720l0 7087c0,13937 -2245,27638 -6379,40395 20789,6378 39451,17835 54451,32953l354 237c23741,23859 38505,56694 38505,92719l0 284064c0,17245 -7086,32836 -18425,44175l0 236c-11457,11339 -27167,18426 -44411,18426l-1805254 0c-17363,0 -33072,-7087 -44411,-18426 -11339,-11457 -18425,-27166 -18425,-44411l0 -284064c0,-36261 14764,-69215 38623,-92956 15118,-15118 33780,-26575 54687,-32953 -4134,-12875 -6497,-26458 -6497,-40395l0 -7087c0,-36261 14883,-69215 38742,-93074 23741,-23741 56694,-38623 92955,-38623l80318 0c40631,-156738 86105,-294458 130043,-427573 103468,-313592 198432,-601436 198432,-1041056 0,-183313 -10158,-360956 -35316,-529978 -23859,-160871 -61183,-314183 -115870,-457219l-129689 0zm1181 -66616l1890 -118 1230393 0 2008 118 10158 0c8386,0 16063,-3425 21614,-8977 5552,-5551 8977,-13228 8977,-21614l0 -4725c0,-8386 -3425,-16064 -8858,-21615l-119 -118c-5551,-5433 -13110,-8859 -21614,-8859l-15473 0 -1182 0 -1237716 0c-7913,355 -15118,3780 -20433,8977 -5552,5551 -8977,13229 -8977,21615l0 4725c0,8386 3425,16063 8858,21614 5552,5552 13229,8977 21733,8977l8741 0zm1032316 66498l-833058 118c51852,141383 87641,291269 110909,447534 25749,172919 36143,353633 36143,539663 0,450132 -96617,742937 -201857,1061844 -42048,127681 -85632,259615 -124492,406785l1195195 0c-39450,-146225 -83152,-276741 -125437,-402651 -107011,-319262 -204691,-610767 -204691,-1065978 0,-186030 10512,-366744 36261,-539663 23386,-156265 59175,-306151 111027,-447652zm-1100586 -234810l1063 0 1370004 0 1181 0 48545 0c8504,0 16063,-3426 21615,-8977 5551,-5551 9094,-13229 9094,-21615l0 -4606c0,-8505 -3425,-16182 -8976,-21615l-118 -118c-5434,-5552 -13111,-8859 -21615,-8859l-49726 0 -16536 0 -1336341 0 -473 0 -16654 0 -49726 0c-8386,0 -16063,3425 -21615,8977 -5551,5551 -8976,13229 -8976,21615l0 4606c0,8504 3425,16182 8976,21733 5552,5433 13229,8859 21615,8859l48663 0zm89412 -132406l1193306 0 -14292 -16890c-8268,-6024 -13583,-15828 -13583,-26812l0 -205164 118 0c0,-13347 8268,-26103 21615,-31064 14764,-5433 27402,-15237 36497,-27757l1063 -1535c8858,-12757 14055,-28348 14055,-45238 0,-21969 -8858,-41812 -23268,-56222 -14292,-14292 -34135,-23269 -56104,-23269 -21969,0 -41812,8977 -56222,23269 -14292,14410 -23269,34253 -23269,56222 0,9331 1536,18189 4370,26221 2953,8386 7323,16182 12875,23151 10158,12874 9567,31772 -2244,43820l-218393 224062c-1299,1299 -2835,2599 -4370,3780 -14883,10630 -35671,7323 -46301,-7560l-173982 -241188c-10394,-12520 -10158,-31064 1063,-43466 6615,-7205 11812,-15591 15355,-24804 3425,-8623 5197,-18308 5197,-28584 0,-21969 -8858,-41812 -23268,-56222 -14292,-14292 -34135,-23268 -56105,-23268 -21969,0 -41812,8976 -56222,23268 -14292,14410 -23268,34253 -23268,56222 0,10867 2126,21025 5787,30119 3898,9449 9686,18072 16891,25513 11102,11339 12756,29292 3189,42639l-171620 238000c-1299,2008 -2953,3897 -4724,5669 -13111,12756 -34135,12520 -46892,-590l-216975 -222645c-12402,-11694 -13937,-31182 -3189,-44765 5551,-6969 9922,-14765 12874,-23151 2835,-8032 4371,-16890 4371,-26221 0,-21969 -8977,-41812 -23269,-56222 -14410,-14292 -34253,-23269 -56222,-23269 -21969,0 -41812,8977 -56104,23269 -14410,14410 -23269,34253 -23269,56222 0,16890 5197,32481 14056,45238l0 118c8740,12520 21024,22441 35316,28347 13819,4016 23977,16772 23977,31891l0 205164c0,11929 -6260,22323 -15709,28229l-13111 15473zm1398706 2996669c2126,-3307 3898,-6851 5315,-10512 2953,-7323 4606,-15591 4606,-24213l0 -7087c0,-17954 -7205,-34253 -18898,-45947l-236 -118c-11693,-11693 -27875,-19016 -45828,-19016l-38269 0 -1181 0 -1431660 0 -1181 0 -21615 0c-17835,0 -34135,7323 -45946,19134 -11811,11812 -19134,27993 -19134,45947l0 7087c0,8622 1653,16890 4606,24213 1535,3661 3307,7205 5433,10512l1603988 0z"></path></g></svg>